<?xml version="1.0" encoding="UTF-8" standalone="no"?>
<!DOCTYPE svg PUBLIC "-//W3C//DTD SVG 1.1//EN"
 "http://www.w3.org/Graphics/SVG/1.1/DTD/svg11.dtd">
<!-- Generated by graphviz version 5.0.0 (20220707.1540)
 -->
<!-- Title: dependencies Pages: 1 -->
<svg width="1892pt" height="247pt"
 viewBox="0.00 0.00 1892.00 246.80" xmlns="http://www.w3.org/2000/svg" xmlns:xlink="http://www.w3.org/1999/xlink">
<g id="graph0" class="graph" transform="scale(1 1) rotate(0) translate(4 242.8)">
<title>dependencies</title>
<polygon fill="white" stroke="transparent" points="-4,4 -4,-242.8 1888,-242.8 1888,4 -4,4"/>
<text text-anchor="middle" x="942" y="-8.2" font-family="sans-serif" font-size="14.00">dependencies</text>
<g id="clust1" class="cluster">
<title>cluster_AppModule</title>
<polygon fill="none" stroke="black" stroke-dasharray="1,5" points="8,-32.8 8,-230.8 1876,-230.8 1876,-32.8 8,-32.8"/>
</g>
<g id="clust10" class="cluster">
<title>cluster_AppModule_imports</title>
<polygon fill="none" stroke="black" points="1424,-40.8 1424,-92.8 1868,-92.8 1868,-40.8 1424,-40.8"/>
</g>
<g id="clust13" class="cluster">
<title>cluster_AppModule_providers</title>
<polygon fill="none" stroke="black" points="1130,-40.8 1130,-92.8 1416,-92.8 1416,-40.8 1130,-40.8"/>
</g>
<g id="clust12" class="cluster">
<title>cluster_AppModule_bootstrap</title>
<polygon fill="none" stroke="black" points="883,-170.8 883,-222.8 1007,-222.8 1007,-170.8 883,-170.8"/>
</g>
<g id="clust2" class="cluster">
<title>cluster_AppModule_declarations</title>
<polygon fill="none" stroke="black" points="16,-40.8 16,-92.8 1122,-92.8 1122,-40.8 16,-40.8"/>
</g>
<!-- AdmindashboardComponent -->
<g id="node1" class="node">
<title>AdmindashboardComponent</title>
<polygon fill="#ffffb3" stroke="black" points="1113.76,-84.8 936.24,-84.8 936.24,-48.8 1113.76,-48.8 1113.76,-84.8"/>
<text text-anchor="middle" x="1025" y="-62.6" font-family="Times,serif" font-size="14.00">AdmindashboardComponent</text>
</g>
<!-- AppModule -->
<g id="node8" class="node">
<title>AppModule</title>
<polygon fill="#8dd3c7" stroke="black" points="986.66,-149.8 983.66,-153.8 962.66,-153.8 959.66,-149.8 903.34,-149.8 903.34,-113.8 986.66,-113.8 986.66,-149.8"/>
<text text-anchor="middle" x="945" y="-127.6" font-family="Times,serif" font-size="14.00">AppModule</text>
</g>
<!-- AdmindashboardComponent&#45;&gt;AppModule -->
<g id="edge1" class="edge">
<title>AdmindashboardComponent&#45;&gt;AppModule</title>
<path fill="none" stroke="black" d="M961.48,-84.91C961.48,-84.91 961.48,-103.79 961.48,-103.79"/>
<polygon fill="black" stroke="black" points="957.98,-103.79 961.48,-113.79 964.98,-103.79 957.98,-103.79"/>
</g>
<!-- AppComponent -->
<g id="node2" class="node">
<title>AppComponent</title>
<polygon fill="#ffffb3" stroke="black" points="917.94,-84.8 812.06,-84.8 812.06,-48.8 917.94,-48.8 917.94,-84.8"/>
<text text-anchor="middle" x="865" y="-62.6" font-family="Times,serif" font-size="14.00">AppComponent</text>
</g>
<!-- AppComponent&#45;&gt;AppModule -->
<g id="edge2" class="edge">
<title>AppComponent&#45;&gt;AppModule</title>
<path fill="none" stroke="black" d="M910.44,-84.91C910.44,-84.91 910.44,-103.79 910.44,-103.79"/>
<polygon fill="black" stroke="black" points="906.94,-103.79 910.44,-113.79 913.94,-103.79 906.94,-103.79"/>
</g>
<!-- ArborescenceComponent -->
<g id="node3" class="node">
<title>ArborescenceComponent</title>
<polygon fill="#ffffb3" stroke="black" points="794.28,-84.8 635.72,-84.8 635.72,-48.8 794.28,-48.8 794.28,-84.8"/>
<text text-anchor="middle" x="715" y="-62.6" font-family="Times,serif" font-size="14.00">ArborescenceComponent</text>
</g>
<!-- ArborescenceComponent&#45;&gt;AppModule -->
<g id="edge3" class="edge">
<title>ArborescenceComponent&#45;&gt;AppModule</title>
<path fill="none" stroke="black" d="M715,-85.04C715,-100.37 715,-119.8 715,-119.8 715,-119.8 893.08,-119.8 893.08,-119.8"/>
<polygon fill="black" stroke="black" points="893.08,-123.3 903.08,-119.8 893.08,-116.3 893.08,-123.3"/>
</g>
<!-- DragDropComponent -->
<g id="node4" class="node">
<title>DragDropComponent</title>
<polygon fill="#ffffb3" stroke="black" points="618.09,-84.8 479.91,-84.8 479.91,-48.8 618.09,-48.8 618.09,-84.8"/>
<text text-anchor="middle" x="549" y="-62.6" font-family="Times,serif" font-size="14.00">DragDropComponent</text>
</g>
<!-- DragDropComponent&#45;&gt;AppModule -->
<g id="edge4" class="edge">
<title>DragDropComponent&#45;&gt;AppModule</title>
<path fill="none" stroke="black" d="M549,-84.82C549,-102.17 549,-125.8 549,-125.8 549,-125.8 893,-125.8 893,-125.8"/>
<polygon fill="black" stroke="black" points="893,-129.3 903,-125.8 893,-122.3 893,-129.3"/>
</g>
<!-- LoginComponent -->
<g id="node5" class="node">
<title>LoginComponent</title>
<polygon fill="#ffffb3" stroke="black" points="462.27,-84.8 347.73,-84.8 347.73,-48.8 462.27,-48.8 462.27,-84.8"/>
<text text-anchor="middle" x="405" y="-62.6" font-family="Times,serif" font-size="14.00">LoginComponent</text>
</g>
<!-- LoginComponent&#45;&gt;AppModule -->
<g id="edge5" class="edge">
<title>LoginComponent&#45;&gt;AppModule</title>
<path fill="none" stroke="black" d="M405,-84.91C405,-104.14 405,-131.8 405,-131.8 405,-131.8 893.08,-131.8 893.08,-131.8"/>
<polygon fill="black" stroke="black" points="893.08,-135.3 903.08,-131.8 893.08,-128.3 893.08,-135.3"/>
</g>
<!-- ProductComponent -->
<g id="node6" class="node">
<title>ProductComponent</title>
<polygon fill="#ffffb3" stroke="black" points="329.38,-84.8 204.62,-84.8 204.62,-48.8 329.38,-48.8 329.38,-84.8"/>
<text text-anchor="middle" x="267" y="-62.6" font-family="Times,serif" font-size="14.00">ProductComponent</text>
</g>
<!-- ProductComponent&#45;&gt;AppModule -->
<g id="edge6" class="edge">
<title>ProductComponent&#45;&gt;AppModule</title>
<path fill="none" stroke="black" d="M267,-85.08C267,-106.12 267,-137.8 267,-137.8 267,-137.8 893.1,-137.8 893.1,-137.8"/>
<polygon fill="black" stroke="black" points="893.1,-141.3 903.1,-137.8 893.1,-134.3 893.1,-141.3"/>
</g>
<!-- variantproductComponent -->
<g id="node7" class="node">
<title>variantproductComponent</title>
<polygon fill="#ffffb3" stroke="black" points="186.47,-84.8 23.53,-84.8 23.53,-48.8 186.47,-48.8 186.47,-84.8"/>
<text text-anchor="middle" x="105" y="-62.6" font-family="Times,serif" font-size="14.00">variantproductComponent</text>
</g>
<!-- variantproductComponent&#45;&gt;AppModule -->
<g id="edge7" class="edge">
<title>variantproductComponent&#45;&gt;AppModule</title>
<path fill="none" stroke="black" d="M105,-85.05C105,-107.82 105,-143.8 105,-143.8 105,-143.8 893.06,-143.8 893.06,-143.8"/>
<polygon fill="black" stroke="black" points="893.06,-147.3 903.06,-143.8 893.06,-140.3 893.06,-147.3"/>
</g>
<!-- AppComponent  -->
<g id="node12" class="node">
<title>AppComponent </title>
<polygon fill="#80b1d3" stroke="black" points="999.44,-214.8 890.56,-214.8 890.56,-178.8 999.44,-178.8 999.44,-214.8"/>
<text text-anchor="middle" x="945" y="-192.6" font-family="Times,serif" font-size="14.00">AppComponent </text>
</g>
<!-- AppModule&#45;&gt;AppComponent  -->
<g id="edge11" class="edge">
<title>AppModule&#45;&gt;AppComponent </title>
<path fill="none" stroke="black" stroke-dasharray="1,5" d="M945,-149.91C945,-149.91 945,-168.79 945,-168.79"/>
<polygon fill="black" stroke="black" points="941.5,-168.79 945,-178.79 948.5,-168.79 941.5,-168.79"/>
</g>
<!-- AppRoutingModule -->
<g id="node9" class="node">
<title>AppRoutingModule</title>
<polygon fill="#8dd3c7" stroke="black" points="1860.28,-84.8 1857.28,-88.8 1836.28,-88.8 1833.28,-84.8 1731.72,-84.8 1731.72,-48.8 1860.28,-48.8 1860.28,-84.8"/>
<text text-anchor="middle" x="1796" y="-62.6" font-family="Times,serif" font-size="14.00">AppRoutingModule</text>
</g>
<!-- AppRoutingModule&#45;&gt;AppModule -->
<g id="edge8" class="edge">
<title>AppRoutingModule&#45;&gt;AppModule</title>
<path fill="none" stroke="black" d="M1796,-85.05C1796,-107.82 1796,-143.8 1796,-143.8 1796,-143.8 996.91,-143.8 996.91,-143.8"/>
<polygon fill="black" stroke="black" points="996.91,-140.3 986.91,-143.8 996.91,-147.3 996.91,-140.3"/>
</g>
<!-- MaterialExampleModule -->
<g id="node10" class="node">
<title>MaterialExampleModule</title>
<polygon fill="#8dd3c7" stroke="black" points="1713.23,-84.8 1710.23,-88.8 1689.23,-88.8 1686.23,-84.8 1556.77,-84.8 1556.77,-48.8 1713.23,-48.8 1713.23,-84.8"/>
<text text-anchor="middle" x="1635" y="-62.6" font-family="Times,serif" font-size="14.00">MaterialExampleModule</text>
</g>
<!-- MaterialExampleModule&#45;&gt;AppModule -->
<g id="edge9" class="edge">
<title>MaterialExampleModule&#45;&gt;AppModule</title>
<path fill="none" stroke="black" d="M1635,-85.08C1635,-106.12 1635,-137.8 1635,-137.8 1635,-137.8 996.87,-137.8 996.87,-137.8"/>
<polygon fill="black" stroke="black" points="996.87,-134.3 986.87,-137.8 996.87,-141.3 996.87,-134.3"/>
</g>
<!-- PrimengModule -->
<g id="node11" class="node">
<title>PrimengModule</title>
<polygon fill="#8dd3c7" stroke="black" points="1538.49,-84.8 1535.49,-88.8 1514.49,-88.8 1511.49,-84.8 1431.51,-84.8 1431.51,-48.8 1538.49,-48.8 1538.49,-84.8"/>
<text text-anchor="middle" x="1485" y="-62.6" font-family="Times,serif" font-size="14.00">PrimengModule</text>
</g>
<!-- PrimengModule&#45;&gt;AppModule -->
<g id="edge10" class="edge">
<title>PrimengModule&#45;&gt;AppModule</title>
<path fill="none" stroke="black" d="M1485,-84.91C1485,-104.14 1485,-131.8 1485,-131.8 1485,-131.8 996.92,-131.8 996.92,-131.8"/>
<polygon fill="black" stroke="black" points="996.92,-128.3 986.92,-131.8 996.92,-135.3 996.92,-128.3"/>
</g>
<!-- NodeService -->
<g id="node13" class="node">
<title>NodeService</title>
<ellipse fill="#fdb462" stroke="black" cx="1347" cy="-66.8" rx="60.82" ry="18"/>
<text text-anchor="middle" x="1347" y="-62.6" font-family="Times,serif" font-size="14.00">NodeService</text>
</g>
<!-- NodeService&#45;&gt;AppModule -->
<g id="edge12" class="edge">
<title>NodeService&#45;&gt;AppModule</title>
<path fill="none" stroke="black" d="M1347,-84.82C1347,-102.17 1347,-125.8 1347,-125.8 1347,-125.8 996.88,-125.8 996.88,-125.8"/>
<polygon fill="black" stroke="black" points="996.88,-122.3 986.88,-125.8 996.88,-129.3 996.88,-122.3"/>
</g>
<!-- NodeServices -->
<g id="node14" class="node">
<title>NodeServices</title>
<ellipse fill="#fdb462" stroke="black" cx="1203" cy="-66.8" rx="64.84" ry="18"/>
<text text-anchor="middle" x="1203" y="-62.6" font-family="Times,serif" font-size="14.00">NodeServices</text>
</g>
<!-- NodeServices&#45;&gt;AppModule -->
<g id="edge13" class="edge">
<title>NodeServices&#45;&gt;AppModule</title>
<path fill="none" stroke="black" d="M1203,-85.04C1203,-100.37 1203,-119.8 1203,-119.8 1203,-119.8 996.74,-119.8 996.74,-119.8"/>
<polygon fill="black" stroke="black" points="996.74,-116.3 986.74,-119.8 996.74,-123.3 996.74,-116.3"/>
</g>
</g>
</svg>
