<?xml version="1.0" encoding="UTF-8" standalone="no"?>
<!DOCTYPE svg PUBLIC "-//W3C//DTD SVG 1.1//EN"
 "http://www.w3.org/Graphics/SVG/1.1/DTD/svg11.dtd">
<!-- Generated by graphviz version 5.0.0 (20220707.1540)
 -->
<!-- Title: dependencies Pages: 1 -->
<svg width="1892pt" height="247pt"
 viewBox="0.00 0.00 1892.00 246.80" xmlns="http://www.w3.org/2000/svg" xmlns:xlink="http://www.w3.org/1999/xlink">
<g id="graph0" class="graph" transform="scale(1 1) rotate(0) translate(4 242.8)">
<title>dependencies</title>
<polygon fill="white" stroke="transparent" points="-4,4 -4,-242.8 1888,-242.8 1888,4 -4,4"/>
<text text-anchor="middle" x="942" y="-8.2" font-family="sans-serif" font-size="14.00">dependencies</text>
<g id="clust1" class="cluster">
<title>cluster_AppModule</title>
<polygon fill="none" stroke="black" stroke-dasharray="1,5" points="8,-32.8 8,-230.8 1876,-230.8 1876,-32.8 8,-32.8"/>
</g>
<g id="clust2" class="cluster">
<title>cluster_AppModule_declarations</title>
<polygon fill="none" stroke="black" points="762,-40.8 762,-92.8 1868,-92.8 1868,-40.8 762,-40.8"/>
</g>
<g id="clust10" class="cluster">
<title>cluster_AppModule_imports</title>
<polygon fill="none" stroke="black" points="310,-40.8 310,-92.8 754,-92.8 754,-40.8 310,-40.8"/>
</g>
<g id="clust12" class="cluster">
<title>cluster_AppModule_bootstrap</title>
<polygon fill="none" stroke="black" points="870,-170.8 870,-222.8 994,-222.8 994,-170.8 870,-170.8"/>
</g>
<g id="clust13" class="cluster">
<title>cluster_AppModule_providers</title>
<polygon fill="none" stroke="black" points="16,-40.8 16,-92.8 302,-92.8 302,-40.8 16,-40.8"/>
</g>
<!-- AdmindashboardComponent -->
<g id="node1" class="node">
<title>AdmindashboardComponent</title>
<polygon fill="#ffffb3" stroke="black" points="1859.76,-84.8 1682.24,-84.8 1682.24,-48.8 1859.76,-48.8 1859.76,-84.8"/>
<text text-anchor="middle" x="1771" y="-62.6" font-family="Times,serif" font-size="14.00">AdmindashboardComponent</text>
</g>
<!-- AppModule -->
<g id="node8" class="node">
<title>AppModule</title>
<polygon fill="#8dd3c7" stroke="black" points="973.66,-149.8 970.66,-153.8 949.66,-153.8 946.66,-149.8 890.34,-149.8 890.34,-113.8 973.66,-113.8 973.66,-149.8"/>
<text text-anchor="middle" x="932" y="-127.6" font-family="Times,serif" font-size="14.00">AppModule</text>
</g>
<!-- AdmindashboardComponent&#45;&gt;AppModule -->
<g id="edge1" class="edge">
<title>AdmindashboardComponent&#45;&gt;AppModule</title>
<path fill="none" stroke="black" d="M1771,-85.05C1771,-107.82 1771,-143.8 1771,-143.8 1771,-143.8 983.89,-143.8 983.89,-143.8"/>
<polygon fill="black" stroke="black" points="983.89,-140.3 973.89,-143.8 983.89,-147.3 983.89,-140.3"/>
</g>
<!-- AppComponent -->
<g id="node2" class="node">
<title>AppComponent</title>
<polygon fill="#ffffb3" stroke="black" points="1663.94,-84.8 1558.06,-84.8 1558.06,-48.8 1663.94,-48.8 1663.94,-84.8"/>
<text text-anchor="middle" x="1611" y="-62.6" font-family="Times,serif" font-size="14.00">AppComponent</text>
</g>
<!-- AppComponent&#45;&gt;AppModule -->
<g id="edge2" class="edge">
<title>AppComponent&#45;&gt;AppModule</title>
<path fill="none" stroke="black" d="M1611,-85.08C1611,-106.12 1611,-137.8 1611,-137.8 1611,-137.8 983.71,-137.8 983.71,-137.8"/>
<polygon fill="black" stroke="black" points="983.71,-134.3 973.71,-137.8 983.71,-141.3 983.71,-134.3"/>
</g>
<!-- ArborescenceComponent -->
<g id="node3" class="node">
<title>ArborescenceComponent</title>
<polygon fill="#ffffb3" stroke="black" points="1540.28,-84.8 1381.72,-84.8 1381.72,-48.8 1540.28,-48.8 1540.28,-84.8"/>
<text text-anchor="middle" x="1461" y="-62.6" font-family="Times,serif" font-size="14.00">ArborescenceComponent</text>
</g>
<!-- ArborescenceComponent&#45;&gt;AppModule -->
<g id="edge3" class="edge">
<title>ArborescenceComponent&#45;&gt;AppModule</title>
<path fill="none" stroke="black" d="M1461,-84.91C1461,-104.14 1461,-131.8 1461,-131.8 1461,-131.8 983.95,-131.8 983.95,-131.8"/>
<polygon fill="black" stroke="black" points="983.95,-128.3 973.95,-131.8 983.95,-135.3 983.95,-128.3"/>
</g>
<!-- DragDropComponent -->
<g id="node4" class="node">
<title>DragDropComponent</title>
<polygon fill="#ffffb3" stroke="black" points="1364.09,-84.8 1225.91,-84.8 1225.91,-48.8 1364.09,-48.8 1364.09,-84.8"/>
<text text-anchor="middle" x="1295" y="-62.6" font-family="Times,serif" font-size="14.00">DragDropComponent</text>
</g>
<!-- DragDropComponent&#45;&gt;AppModule -->
<g id="edge4" class="edge">
<title>DragDropComponent&#45;&gt;AppModule</title>
<path fill="none" stroke="black" d="M1295,-84.82C1295,-102.17 1295,-125.8 1295,-125.8 1295,-125.8 984,-125.8 984,-125.8"/>
<polygon fill="black" stroke="black" points="984,-122.3 974,-125.8 984,-129.3 984,-122.3"/>
</g>
<!-- LoginComponent -->
<g id="node5" class="node">
<title>LoginComponent</title>
<polygon fill="#ffffb3" stroke="black" points="1208.27,-84.8 1093.73,-84.8 1093.73,-48.8 1208.27,-48.8 1208.27,-84.8"/>
<text text-anchor="middle" x="1151" y="-62.6" font-family="Times,serif" font-size="14.00">LoginComponent</text>
</g>
<!-- LoginComponent&#45;&gt;AppModule -->
<g id="edge5" class="edge">
<title>LoginComponent&#45;&gt;AppModule</title>
<path fill="none" stroke="black" d="M1151,-85.04C1151,-100.37 1151,-119.8 1151,-119.8 1151,-119.8 983.71,-119.8 983.71,-119.8"/>
<polygon fill="black" stroke="black" points="983.71,-116.3 973.71,-119.8 983.71,-123.3 983.71,-116.3"/>
</g>
<!-- ProductComponent -->
<g id="node6" class="node">
<title>ProductComponent</title>
<polygon fill="#ffffb3" stroke="black" points="1075.38,-84.8 950.62,-84.8 950.62,-48.8 1075.38,-48.8 1075.38,-84.8"/>
<text text-anchor="middle" x="1013" y="-62.6" font-family="Times,serif" font-size="14.00">ProductComponent</text>
</g>
<!-- ProductComponent&#45;&gt;AppModule -->
<g id="edge6" class="edge">
<title>ProductComponent&#45;&gt;AppModule</title>
<path fill="none" stroke="black" d="M962.19,-84.91C962.19,-84.91 962.19,-103.79 962.19,-103.79"/>
<polygon fill="black" stroke="black" points="958.69,-103.79 962.19,-113.79 965.69,-103.79 958.69,-103.79"/>
</g>
<!-- variantproductComponent -->
<g id="node7" class="node">
<title>variantproductComponent</title>
<polygon fill="#ffffb3" stroke="black" points="932.47,-84.8 769.53,-84.8 769.53,-48.8 932.47,-48.8 932.47,-84.8"/>
<text text-anchor="middle" x="851" y="-62.6" font-family="Times,serif" font-size="14.00">variantproductComponent</text>
</g>
<!-- variantproductComponent&#45;&gt;AppModule -->
<g id="edge7" class="edge">
<title>variantproductComponent&#45;&gt;AppModule</title>
<path fill="none" stroke="black" d="M911.33,-84.91C911.33,-84.91 911.33,-103.79 911.33,-103.79"/>
<polygon fill="black" stroke="black" points="907.83,-103.79 911.33,-113.79 914.83,-103.79 907.83,-103.79"/>
</g>
<!-- AppComponent  -->
<g id="node12" class="node">
<title>AppComponent </title>
<polygon fill="#80b1d3" stroke="black" points="986.44,-214.8 877.56,-214.8 877.56,-178.8 986.44,-178.8 986.44,-214.8"/>
<text text-anchor="middle" x="932" y="-192.6" font-family="Times,serif" font-size="14.00">AppComponent </text>
</g>
<!-- AppModule&#45;&gt;AppComponent  -->
<g id="edge11" class="edge">
<title>AppModule&#45;&gt;AppComponent </title>
<path fill="none" stroke="black" stroke-dasharray="1,5" d="M932,-149.91C932,-149.91 932,-168.79 932,-168.79"/>
<polygon fill="black" stroke="black" points="928.5,-168.79 932,-178.79 935.5,-168.79 928.5,-168.79"/>
</g>
<!-- AppRoutingModule -->
<g id="node9" class="node">
<title>AppRoutingModule</title>
<polygon fill="#8dd3c7" stroke="black" points="746.28,-84.8 743.28,-88.8 722.28,-88.8 719.28,-84.8 617.72,-84.8 617.72,-48.8 746.28,-48.8 746.28,-84.8"/>
<text text-anchor="middle" x="682" y="-62.6" font-family="Times,serif" font-size="14.00">AppRoutingModule</text>
</g>
<!-- AppRoutingModule&#45;&gt;AppModule -->
<g id="edge8" class="edge">
<title>AppRoutingModule&#45;&gt;AppModule</title>
<path fill="none" stroke="black" d="M682,-85.04C682,-100.37 682,-119.8 682,-119.8 682,-119.8 880.16,-119.8 880.16,-119.8"/>
<polygon fill="black" stroke="black" points="880.16,-123.3 890.16,-119.8 880.16,-116.3 880.16,-123.3"/>
</g>
<!-- MaterialExampleModule -->
<g id="node10" class="node">
<title>MaterialExampleModule</title>
<polygon fill="#8dd3c7" stroke="black" points="599.23,-84.8 596.23,-88.8 575.23,-88.8 572.23,-84.8 442.77,-84.8 442.77,-48.8 599.23,-48.8 599.23,-84.8"/>
<text text-anchor="middle" x="521" y="-62.6" font-family="Times,serif" font-size="14.00">MaterialExampleModule</text>
</g>
<!-- MaterialExampleModule&#45;&gt;AppModule -->
<g id="edge9" class="edge">
<title>MaterialExampleModule&#45;&gt;AppModule</title>
<path fill="none" stroke="black" d="M521,-84.82C521,-102.17 521,-125.8 521,-125.8 521,-125.8 880.33,-125.8 880.33,-125.8"/>
<polygon fill="black" stroke="black" points="880.33,-129.3 890.33,-125.8 880.33,-122.3 880.33,-129.3"/>
</g>
<!-- PrimengModule -->
<g id="node11" class="node">
<title>PrimengModule</title>
<polygon fill="#8dd3c7" stroke="black" points="424.49,-84.8 421.49,-88.8 400.49,-88.8 397.49,-84.8 317.51,-84.8 317.51,-48.8 424.49,-48.8 424.49,-84.8"/>
<text text-anchor="middle" x="371" y="-62.6" font-family="Times,serif" font-size="14.00">PrimengModule</text>
</g>
<!-- PrimengModule&#45;&gt;AppModule -->
<g id="edge10" class="edge">
<title>PrimengModule&#45;&gt;AppModule</title>
<path fill="none" stroke="black" d="M371,-84.91C371,-104.14 371,-131.8 371,-131.8 371,-131.8 880.29,-131.8 880.29,-131.8"/>
<polygon fill="black" stroke="black" points="880.29,-135.3 890.29,-131.8 880.29,-128.3 880.29,-135.3"/>
</g>
<!-- NodeService -->
<g id="node13" class="node">
<title>NodeService</title>
<ellipse fill="#fdb462" stroke="black" cx="233" cy="-66.8" rx="60.82" ry="18"/>
<text text-anchor="middle" x="233" y="-62.6" font-family="Times,serif" font-size="14.00">NodeService</text>
</g>
<!-- NodeService&#45;&gt;AppModule -->
<g id="edge12" class="edge">
<title>NodeService&#45;&gt;AppModule</title>
<path fill="none" stroke="black" d="M233,-85.08C233,-106.12 233,-137.8 233,-137.8 233,-137.8 880.11,-137.8 880.11,-137.8"/>
<polygon fill="black" stroke="black" points="880.11,-141.3 890.11,-137.8 880.11,-134.3 880.11,-141.3"/>
</g>
<!-- NodeServices -->
<g id="node14" class="node">
<title>NodeServices</title>
<ellipse fill="#fdb462" stroke="black" cx="89" cy="-66.8" rx="64.84" ry="18"/>
<text text-anchor="middle" x="89" y="-62.6" font-family="Times,serif" font-size="14.00">NodeServices</text>
</g>
<!-- NodeServices&#45;&gt;AppModule -->
<g id="edge13" class="edge">
<title>NodeServices&#45;&gt;AppModule</title>
<path fill="none" stroke="black" d="M89,-85.05C89,-107.82 89,-143.8 89,-143.8 89,-143.8 880.2,-143.8 880.2,-143.8"/>
<polygon fill="black" stroke="black" points="880.2,-147.3 890.2,-143.8 880.2,-140.3 880.2,-147.3"/>
</g>
</g>
</svg>
